<svg width="160" height="160" viewBox="0 0 160 160" fill="none" xmlns="http://www.w3.org/2000/svg">
  <rect width="160" height="160" rx="32" fill="#111111"/>
  <path d="M80 20L122 38V75C122 103.5 105.1 129.4 80 140C54.9 129.4 38 103.5 38 75V38L80 20Z" fill="#FF7A1A"/>
  <path d="M80 38L108 50V73.5C108 92.5 97.1 110.1 80 117.6C62.9 110.1 52 92.5 52 73.5V50L80 38Z" fill="#111111"/>
  <path d="M80 54L95.5 86H86.8L83.5 78.7H76.4L73.1 86H64.5L80 54ZM80 69.8L78.9 72.2H81.1L80 69.8Z" fill="#FF7A1A"/>
</svg>
